# xmcd
#
# Track frame offsets:
#	150
#	13437
#	30552
#	45945
#	60202
#	75297
#	90995
#	104732
#	123142
#	137217
#	153450
#	171097
#	187092
#
# Disc length: 2742 seconds
#
# Revision: 1
# Processed by: cddbd v1.5.2PL0 Copyright (c) Steve Scherf et al.
# Submitted via: EasyCDDAExtractor 12.0.1.1
#
DISCID=9b0ab40d
DTITLE=Various Artist - One More Time
DYEAR=1992
DGENRE=Country
TTITLE0=Steven Kvinlaug - Think I'll Go To Mexico
TTITLE1=Steven Kvinlaug and Arny Røynestad - No Love At All
TTITLE2=Steven Kvinlaug - It's All Over Now
TTITLE3=Steven Kvinlaug - Children Of Tomorrow
TTITLE4=Steven Kvinlaug - Dream On
TTITLE5=Steven Kvinlaug - Carmen
TTITLE6=Steven Kvinlaug - Alone In A Barroom
TTITLE7=Steven Kvinlaug and Elianne Brulid - Ain't Ae A Pair
TTITLE8=Steven Kvinlaug - Naggin' Mama Blues
TTITLE9=Steven Kvinlaug - Worse To Lose A Friend
TTITLE10=Steven Kvinlaug - Looking Back Through Time
TTITLE11=Steven Kvinlaug - Long Cold Christmas
TTITLE12=Steven Kvinlaug - Tomorrow Never Comes
EXTD=
EXTT0=
EXTT1=
EXTT2=
EXTT3=
EXTT4=
EXTT5=
EXTT6=
EXTT7=
EXTT8=
EXTT9=
EXTT10=
EXTT11=
EXTT12=
PLAYORDER=
